<?xml version="1.0" standalone="no"?><!DOCTYPE svg PUBLIC "-//W3C//DTD SVG 1.1//EN" "http://www.w3.org/Graphics/SVG/1.1/DTD/svg11.dtd"><svg t="1528543706469" class="icon" style="" viewBox="0 0 1024 1024" version="1.1" xmlns="http://www.w3.org/2000/svg" p-id="2003" xmlns:xlink="http://www.w3.org/1999/xlink" width="200" height="200"><defs><style type="text/css"></style></defs><path d="M512 64c-247.296 0-448 200.704-448 448s200.704 448 448 448 448-200.704 448-448-200.704-448-448-448z m353.792 597.504c-82.432 194.56-306.688 285.696-501.248 203.776s-285.696-306.688-203.776-501.76 306.688-285.696 501.248-203.776c167.936 71.168 262.656 250.88 225.792 429.568-4.608 24.576-12.288 49.152-22.016 72.192z" fill="#515151" p-id="2004"></path><path d="M495.616 549.376c-16.896 0-31.232-13.824-31.232-31.232V256c0-16.896 13.824-31.232 31.232-31.232 16.896 0 31.232 13.824 31.232 31.232v262.144c-0.512 17.408-14.336 31.232-31.232 31.232z" fill="#515151" p-id="2005"></path><path d="M464.384 518.656c0-16.896 13.824-31.232 31.232-31.232h226.816c16.896 0 31.232 13.824 31.232 31.232 0 16.896-13.824 31.232-31.232 31.232H495.104c-16.896-0.512-30.72-14.336-30.72-31.232z" fill="#515151" p-id="2006"></path></svg>